Coordinates
version=1
nRows=13
nColumns=36
inDegrees=yes

Units are S.I. units (second, meters, Newtons, ...)
If the header above contains a line with 'inDegrees', this indicates whether rotational values are in degrees (yes) or radians (no).

endheader
time	pelvis_tilt	pelvis_list	pelvis_rotation	pelvis_tx	pelvis_ty	pelvis_tz	hip_flexion_r	hip_adduction_r	hip_rotation_r	knee_angle_r	knee_angle_r_beta	ankle_angle_r	subtalar_angle_r	mtp_angle_r	hip_flexion_l	hip_adduction_l	hip_rotation_l	knee_angle_l	knee_angle_l_beta	ankle_angle_l	subtalar_angle_l	mtp_angle_l	lumbar_extension	lumbar_bending	lumbar_rotation	arm_flex_r	arm_add_r	arm_rot_r	elbow_flex_r	pro_sup_r	arm_flex_l	arm_add_l	arm_rot_l	elbow_flex_l	pro_sup_l
      8.35000000	    -18.62920022	    -10.37391626	      2.94390346	      0.22372204	      0.72598228	     -0.18312790	     76.41497806	     -7.59743202	      2.96564072	     21.82206369	      0.38086686	     -2.52826321	    -15.52630351	     -7.49999987	     63.57305562	      6.69148911	     11.78159598	     76.22695370	      1.33041132	     27.93546071	    -21.65095652	     -7.49999987	    -27.57482435	      1.72864678	     -0.28764557	     48.86412733	      6.95052036	     69.24160304	    124.46619282	     97.04171380	     70.89711288	      6.99027300	     82.78650324	    125.85433313	     75.85694568
      8.36666670	    -18.45323868	    -10.11687647	      3.17010289	      0.21951404	      0.72216072	     -0.18027635	     76.57315226	     -7.89959602	      2.86731266	     21.66099222	      0.37805563	     -2.45325047	    -15.52564842	     -7.49999987	     64.20095628	      7.01534447	     11.44992521	     76.90678626	      1.34227664	     28.31940330	    -20.83674026	     -7.49999987	    -28.80256555	      1.06457090	     -0.41672608	     49.35781935	      7.36626511	     68.70903314	    124.12687200	     96.91155510	     72.17330758	      7.02486757	     83.45620333	    126.00629182	     76.06355900
      8.38333330	    -18.22272350	    -10.01953401	      3.10163306	      0.22024448	      0.72176541	     -0.18081394	     76.44863676	     -7.95360614	      2.57489740	     21.63041160	      0.37752190	     -2.57015524	    -15.22305475	     -7.49999987	     64.20432506	      6.97003570	     11.31627737	     77.20250647	      1.34743793	     28.45674526	    -20.70205363	     -7.49999987	    -29.77968539	      0.73767164	     -0.59210357	     49.79743907	      7.68241685	     68.56222848	    124.20635517	     96.02915796	     72.86246436	      6.75035642	     83.54543555	    125.94021874	     75.47817017
      8.40000000	    -17.80255061	     -9.51726027	      3.05884624	      0.21650383	      0.72054027	     -0.18344899	     76.03065339	     -8.28738887	      2.40529516	     20.86649414	      0.36418903	     -3.12788023	    -14.90538376	     -7.49999987	     63.89880086	      7.17341977	     10.70967037	     77.06211783	      1.34498768	     28.54960516	    -19.67095910	     -7.49999987	    -31.14901441	      0.15351922	     -0.84797100	     51.14248215	      8.09710041	     68.57297741	    124.18983393	     95.93448111	     73.98436829	      6.48849060	     83.70573653	    126.03956247	     75.77687432
      8.41666670	    -17.85683043	     -9.39133481	      2.86088540	      0.22143758	      0.71852271	     -0.18056356	     75.67998786	     -8.17623958	      2.10090227	     20.00680877	      0.34918469	     -3.38982306	    -14.44540704	     -7.49999987	     63.84060782	      6.84490883	     10.52552988	     77.09470402	      1.34555642	     28.20256546	    -19.73127854	     -7.49999987	    -31.67298561	     -0.39728106	     -0.81482077	     51.40316519	      8.35940595	     68.27420211	    124.07206351	     96.06519509	     74.10151406	      6.37841435	     83.73675624	    125.92242901	     75.90028358
      8.43333330	    -17.40283035	     -9.42578206	      2.36779710	      0.22119869	      0.71893084	     -0.18012743	     75.32314414	     -7.70040341	      1.84078857	     20.19976086	      0.35255234	     -3.35845776	    -14.37361162	     -7.49999987	     63.64867174	      6.37801086	     10.33708227	     77.56754801	      1.35380911	     28.02701674	    -20.03990659	     -7.49999987	    -32.91753877	     -0.82548741	     -0.48345106	     51.80898037	      8.51935739	     68.06548336	    123.73312431	     95.11383075	     74.65370931	      6.52729431	     83.85096986	    125.94673316	     75.33233388
      8.45000000	    -17.49504989	     -9.41482625	      2.11947504	      0.22521434	      0.71768549	     -0.17722596	     74.91213136	     -7.32947360	      2.03345874	     19.34984428	      0.33771849	     -3.38400908	    -14.59446056	     -7.49999987	     63.28868384	      5.82866819	     10.17018397	     77.52403969	      1.35304974	     28.86962727	    -19.45498819	     -7.49999987	    -33.21571262	     -1.55099550	     -0.41920144	     51.27533657	      8.47701050	     67.49648973	    123.58031505	    100.93075525	     74.41414293	      6.56218401	     84.22613250	    125.84405858	     79.57744456
      8.46666670	    -17.44382609	     -9.35339531	      2.01386853	      0.22032376	      0.71620732	     -0.17999744	     74.89739314	     -7.43008361	      1.70150175	     19.02333245	      0.33201979	     -3.51142047	    -14.42529691	     -7.49999987	     63.94020605	      5.68311248	      9.65875852	     78.20563034	      1.36494574	     28.48944665	    -19.19723034	     -7.49999987	    -33.84986873	     -1.99580961	     -0.63523983	     51.35011725	      8.55189543	     67.48299844	    123.53878025	    100.94785756	     74.41386033	      6.76873010	     84.33961661	    126.03888760	     79.61321568
      8.48333330	    -17.31136978	     -9.41817839	      2.54294087	      0.22004270	      0.71616985	     -0.18078332	     74.81131946	     -8.01711864	      1.61217269	     18.97418877	      0.33116207	     -3.24026390	    -13.89792647	     -7.49999987	     64.05173173	      5.76580452	      9.48648152	     77.96918328	      1.36081896	     28.30166708	    -18.48097162	     -7.49999987	    -34.64923636	     -1.88242702	     -0.87382448	     51.56272506	      8.51502288	     67.40577369	    123.98775270	    100.29312225	     74.66849125	      6.91762208	     84.70964616	    126.62630587	     79.24196340
      8.50000000	    -16.86313698	     -9.34323733	      2.88941123	      0.22070352	      0.71846037	     -0.18024627	     73.93295119	     -8.40753751	      1.30227732	     18.06859988	      0.31535656	     -3.12768947	    -12.56152526	     -7.49999987	     63.50013657	      5.37939711	      9.09048236	     77.24239356	      1.34813409	     28.89655435	    -15.92677210	     -7.49999987	    -35.68714150	     -2.02404474	     -0.99436467	     51.82364549	      8.43231043	     67.19144480	    124.23089604	    103.06910332	     74.88824486	      7.10841190	     84.99166027	    126.70350068	     81.34935562
      8.51666670	    -16.27620150	     -9.34833160	      3.26544781	      0.22070718	      0.71856882	     -0.18073019	     72.97205160	     -8.74684058	      1.26089724	     17.36915385	      0.30314892	     -2.80629996	    -11.65638255	     -7.49999987	     63.18561252	      5.11578023	      8.70083391	     77.36290610	      1.35023743	     29.33346918	    -14.57801831	     -7.49999987	    -36.71537053	     -2.05037407	     -1.09976642	     52.13649670	      8.42903615	     67.36652868	    124.33580438	    101.38892886	     75.24634039	      7.27397878	     85.08098562	    126.81861257	     80.81430788
      8.53333330	    -15.66782276	     -9.23108619	      3.84054588	      0.21658912	      0.71762364	     -0.17822324	     72.21535132	     -9.26977539	      1.41411588	     16.62786602	      0.29021101	     -2.87803050	    -10.96704276	     -7.49999987	     62.82630283	      4.81232518	      8.27088316	     77.41062486	      1.35107028	     30.33740589	    -12.59184794	     -7.49999987	    -37.64460090	     -2.42724264	     -1.67459990	     52.74442607	      8.51423218	     67.33729028	    124.52549550	     99.34706812	     76.08713485	      7.39791807	     85.22427591	    126.67545926	     78.49685390
      8.55000000	    -15.25857316	     -9.39170476	      4.23792624	      0.22093822	      0.71667466	     -0.17565233	     71.90322737	     -9.42455894	      1.59936874	     17.08737679	      0.29823099	     -2.35318393	    -11.32704390	     -7.49999987	     62.77979229	      4.25266832	      7.99787382	     77.92078453	      1.35997425	     30.37696409	    -12.12454581	     -7.49999987	    -37.98926364	     -2.62008445	     -1.81486050	     53.16752983	      8.56954577	     67.00162670	    124.64910630	     99.72898538	     76.42881850	      7.48789168	     85.12000062	    126.46339346	     78.77749460
